<svg xmlns="http://www.w3.org/2000/svg" width="30" height="28" fill="red"><path d="M.766 12.969A2.98 2.98 0 0 0 0 14.964a3 3 0 0 0 3 2.993h5.823C8.246 19.703 8 22.02 8 23.013v.997A4 4 0 0 0 12 28h1a1 1 0 0 0 .97-.756l.545-2.174c.763-3.045 3.187-6.404 5.695-7.015.439 1.109 1.524 1.897 2.791 1.897h6a1 1 0 0 0 1-.998V.998A1 1 0 0 0 29 0h-6c-1.193 0-2.225.698-2.708 1.706L16.856.563A11 11 0 0 0 13.377 0H5a3 3 0 0 0-3 2.993c0 .389.075.762.211 1.103A3 3 0 0 0 0 6.983a2.98 2.98 0 0 0 .766 1.995 2.98 2.98 0 0 0 0 3.991zM22 2.993a1 1 0 0 1 1-.998h5v15.962h-5a1 1 0 0 1-1-.998V2.993zM5 11.972H3a1 1 0 0 1-1-.998 1 1 0 0 1 1-.998h2a1 1 0 0 0 1-.998 1 1 0 0 0-1-.998H3a1 1 0 0 1-1-.998 1 1 0 0 1 1-.998h2a1 1 0 0 0 1-.998 1 1 0 0 0-1-.998 1 1 0 0 1-1-.998 1 1 0 0 1 1-.998h8.377a9 9 0 0 1 2.847.461L20 3.712v12.345c-1.569.297-3.104 1.288-4.49 2.91-1.353 1.584-2.451 3.685-2.935 5.619l-.355 1.419H12a2 2 0 0 1-2-1.995v-.997c0-1.339.42-3.909.957-5.055H13a1 1 0 0 0 1-.998 1 1 0 0 0-1-.998H3a1 1 0 0 1-1-.998 1 1 0 0 1 1-.998h2a1 1 0 0 0 1-.998 1 1 0 0 0-1-.998zm20-7.981a1 1 0 1 0 1 .998 1 1 0 0 0-1-.998z"/></svg>