<svg xmlns="http://www.w3.org/2000/svg" viewBox="0 0 512 512" fill="#ff5400"><path d="M512 431.983v-214c0-44.112-35.888-80-80-80h-82.365c18.792-7.998 26.608-14.103 31.007-18.502 27.294-27.293 27.294-71.702 0-98.995s-71.7-27.293-98.995 0c-5.775 5.776-14.494 17.45-26.574 52.121-12.081-34.671-20.799-46.346-26.575-52.121-27.293-27.293-71.7-27.293-98.995 0s-27.293 71.702 0 98.995c4.4 4.399 12.216 10.505 31.008 18.502H80c-44.112 0-80 35.888-80 80v214c0 44.112 35.888 80 80 80h352c44.112 0 80-35.888 80-80h-40c-.903 26.034-17.944 40-40 40H276V178.937c21.565 4.414 39.257 16.309 52.756 35.537C343.504 235.482 349 259.671 349 269.983c0 11.046 8.954 20 20 20s20-8.954 20-20c0-19.567-8.505-51.425-27.506-78.491-3.101-4.417-6.686-8.984-10.779-13.509H432c22.056 0 40 17.944 40 40v214zM157.788 91.198C152.12 85.53 149 77.996 149 69.983a29.8 29.8 0 0 1 8.786-21.213c11.698-11.696 30.73-11.696 42.427 0 .888.888 9.072 9.968 22.936 54.873l4.42 14.91-14.708-4.358c-45.073-13.899-54.183-22.106-55.073-22.997zM236 471.983H80c-22.056 0-40-17.944-40-40v-214c0-22.056 17.944-40 40-40h77.316c-10.9 11.822-20.166 26.119-27.645 42.831C110.49 263.679 109 309.086 109 321.983c0 11.046 8.954 20 20 20s20-8.954 20-20c0-7.754.828-48.282 17.184-84.831 15.11-33.768 38.063-53.051 69.816-58.525zm61.486-357.853l-14.909 4.42 4.419-14.908c13.863-44.904 22.048-53.985 22.935-54.873 5.85-5.849 13.53-8.772 21.214-8.772s15.365 2.925 21.213 8.772a29.8 29.8 0 0 1 8.787 21.213c0 8.013-3.12 15.547-8.787 21.213-.888.888-9.971 9.073-54.872 22.935z"/></svg>