<svg xmlns="http://www.w3.org/2000/svg" width="1217.51" height="347.981" ><defs><linearGradient id="A" x1="-.005" y1="347.983" x2="319.1" y2="166.653" gradientUnits="userSpaceOnUse"><stop offset="0" stop-color="#ff8a15"/><stop offset="1" stop-color="#ff3131"/></linearGradient><linearGradient id="B" x1="10.889" y1="218.57" x2="97.001" y2="72.088" gradientUnits="userSpaceOnUse"><stop offset="0" stop-color="#ff771b"/><stop offset="1" stop-color="#ff452b" stop-opacity="0"/></linearGradient></defs><path d="M428.803 0v135.355a2.43 2.43 0 0 0 2.383 2.385h14.857V2.385c0-1.284-1.101-2.385-2.385-2.385zm44.566 0a2.43 2.43 0 0 0-2.383 2.385V137.74h14.855c1.284 0 2.385-1.101 2.385-2.385V15.773h3.117c1.834 0 4.034 1.285 4.951 2.936l62.727 116.83c.55 1.1 2.201 2.201 3.484 2.201h15.957V0h-14.857a2.43 2.43 0 0 0-2.383 2.385v71.529c.917 13.022.916 24.577 2.75 38.883l-16.689-32.83-37.416-70.611C507.116 4.22 500.148 0 494.279 0zm155.164 0c-17.24 0-31.18 10.455-31.18 27.695v21.826c0 5.869 4.586 12.103 10.088 13.937l70.428 23.476c1.834.549 3.301 2.568 3.301 4.402v16.689c0 7.703-5.869 13.939-13.572 13.939h-67.859c-1.284 0-2.385.917-2.385 2.385v13.389h70.244c17.057 0 30.08-12.656 30.08-29.896V88.221c0-5.869-4.035-12.289-9.537-14.123l-70.43-23.293c-1.834-.55-3.301-2.568-3.301-4.586V28.43c0-7.703 6.42-12.656 14.123-12.656h62.908c1.467 0 2.385-1.101 2.385-2.385V0zm83.449 0a2.43 2.43 0 0 0-2.383 2.385v13.389h41.082V137.74h14.855c1.467 0 2.385-1.101 2.385-2.385V15.773h39.25c1.284 0 2.385-1.101 2.385-2.385V0zm150.945 0c-6.603 0-12.289 4.219-14.49 10.271l-44.75 127.469h15.039c1.467 0 2.934-1.101 3.301-2.385l12.289-35.398h70.061l12.289 35.398c.367 1.284 1.65 2.385 3.301 2.385h15.039L886.953 1.285C886.586.552 885.669 0 884.752 0zm88.77 0c-1.284 0-2.385 1.101-2.385 2.385V137.74h14.855c1.284 0 2.385-1.101 2.385-2.385V15.773h3.117c1.834 0 4.036 1.285 4.953 2.936l62.725 116.83c.55 1.1 2.2 2.201 3.484 2.201h15.957V0h-14.855c-1.284 0-2.385 1.101-2.385 2.385v71.529c.917 13.022.918 24.577 2.752 38.883l-16.691-32.83-37.414-70.611C985.444 4.22 978.475 0 972.605 0zm121.965 0a2.43 2.43 0 0 0-2.383 2.385v13.389h41.082V137.74h14.855c1.467 0 2.385-1.101 2.385-2.385V15.773h39.25c1.284 0 2.385-1.101 2.385-2.385V0zM866.045 15.773h8.988l23.842 68.412h-59.057l22.926-66.027c.55-1.467 1.834-2.385 3.301-2.385zM502.5 186.101c-17.425 0-31.514 14.089-31.514 31.514v77.672c0 17.425 14.088 31.514 31.514 31.514h38.373c17.425 0 31.514-10.01 31.514-29.66v-47.457c0-1.298-1.113-2.408-2.41-2.408h-49.494v13.531c0 1.298 1.112 2.41 2.41 2.41h33.738v33.553c0 7.786-7.972 14.088-15.758 14.088H502.5c-7.786 0-14.088-6.302-14.088-14.088v-80.639c0-7.786 6.302-14.088 14.088-14.088h60.988c1.484 0 2.596-1.113 2.596-2.41v-13.531zm645.123 0c-17.425 0-31.514 14.089-31.514 31.514v77.672c0 17.425 14.088 31.514 31.514 31.514h38.371c17.425 0 31.516-10.01 31.516-29.66v-47.457c0-1.298-1.112-2.408-2.41-2.408h-49.496v13.531c0 1.298 1.113 2.41 2.41 2.41h33.738v33.553c0 7.786-7.972 14.088-15.758 14.088h-38.371c-7.786 0-14.09-6.302-14.09-14.088v-80.639c0-7.786 6.304-14.088 14.09-14.088h60.988c1.484 0 2.596-1.113 2.596-2.41v-13.531zm-492.488.74c-6.674 0-12.42 4.263-14.645 10.381l-45.232 128.836h15.201c1.484 0 2.965-1.113 3.336-2.41l12.422-35.777h70.813l12.42 35.777c.372 1.298 1.67 2.41 3.338 2.41h15.199L679.419 188.14c-.371-.741-1.298-1.299-2.225-1.299zm267.148 0v136.807c0 1.298 1.112 2.41 2.41 2.41h15.016V189.252c0-1.298-1.112-2.41-2.41-2.41zm54.936 0c-1.298 0-2.41 1.112-2.41 2.41v136.807h15.016c1.298 0 2.41-1.113 2.41-2.41V202.785h3.15c1.854 0 4.079 1.297 5.006 2.965l63.399 118.084c.557 1.112 2.224 2.225 3.522 2.225h16.129V186.842h-15.016c-1.298 0-2.41 1.112-2.41 2.41v72.297c.927 13.162.927 24.84 2.781 39.299l-16.869-33.182-37.816-71.369c-2.781-5.19-9.826-9.455-15.758-9.455zm-223.1.186c-1.298 0-2.41.927-2.41 2.41v136.435h15.016c1.298 0 2.41-1.111 2.41-2.408v-108.26l38.742 73.594c.741 1.298 2.226 2.225 3.709 2.225h13.531c1.484 0 2.967-.927 3.709-2.225l38.742-73.594v108.26c0 1.298 1.113 2.408 2.41 2.408h15.016V189.437c0-1.484-1.112-2.41-2.41-2.41h-12.977c-1.854 0-4.077 1.299-5.004 2.967l-46.344 84.531-46.16-84.531c-.927-1.667-3.15-2.967-5.004-2.967zm-95.834 15.758h9.084l24.1 69.145h-59.691l23.172-66.734c.557-1.484 1.853-2.41 3.336-2.41z" fill="#fff"/><g transform="matrix(1.013953 0 0 1.013953 .002702 -4.857437)"><path d="M50.082 4.795a16.72 16.72 0 0 0-7.939 2.242L8.391 26.51C.368 31.137-2.383 41.393 2.248 49.414c3.108 5.379 8.748 8.385 14.547 8.385a16.72 16.72 0 0 0 8.375-2.248l33.752-19.472c8.023-4.627 10.774-14.884 6.143-22.904-3.186-5.513-9.032-8.533-14.982-8.379zm84.151 48.289c-2.896 0-5.793.749-8.389 2.246L8.389 123.092c-8.025 4.63-10.774 14.884-6.141 22.904 3.108 5.379 8.748 8.385 14.547 8.385a16.72 16.72 0 0 0 8.373-2.248l109.063-62.922 134.232 77.443L33.556 302.176v-58.082l1.859-1.073-24.527-24.581-2.5 1.454c-5.192 2.995-8.389 8.531-8.389 14.521v96.801c0 5.991 3.197 11.526 8.389 14.521 2.596 1.498 5.493 2.246 8.391 2.246a16.77 16.77 0 0 0 8.389-2.246L310.41 181.172a16.77 16.77 0 0 0 8.391-14.52c.002-5.992-3.199-11.525-8.391-14.52l-83.609-48.236c-.179-.108-.36-.212-.543-.312L142.621 55.33a16.78 16.78 0 0 0-8.389-2.246z" fill="url(#A)"/><path d="M184.481 118.255L15.633 215.661l-6.096 3.57 24.019 24.863 184.483-106.478z" fill="url(#B)"/></g></svg>