<svg width="967" height="1290" viewBox="0 0 967 1290" fill="none" xmlns="http://www.w3.org/2000/svg">
<g clip-path="url(#clip0_147_3723)">
<path d="M966.32 155.335L483.16 0L0 155.335C0 155.335 36.6311 319.711 36.6311 491.043C36.6311 662.374 18.7793 802.407 18.7793 867.555C18.7793 932.703 26.1982 998.778 91.1142 1084.1C156.262 1169.41 287.485 1217.41 328.289 1231.78C369.093 1246.15 445.602 1267.25 482.928 1289.04C520.255 1267.48 596.763 1246.15 637.567 1231.78C678.371 1217.41 809.826 1169.41 874.742 1084.1C939.89 998.778 947.077 932.471 947.077 867.555C947.077 802.639 929.225 662.374 929.225 491.043C929.225 319.711 965.856 155.335 965.856 155.335" fill="#00291C"/>
<path d="M247.353 767.381C247.353 767.381 251.825 807.068 277.537 850.946L304.647 799.242L290.952 698.908L290.114 693.598V692.759C268.873 701.423 245.955 707.572 220.243 707.851L205.71 770.455L245.396 745.302L247.632 767.102L247.353 767.381Z" fill="#3AAA35"/>
<path d="M680.256 694.157L679.697 699.188L665.164 803.994L690.038 850.947C715.75 807.068 720.222 767.661 720.222 767.381L722.458 745.582L762.144 770.735L747.332 708.131C723.017 707.852 700.938 701.982 680.256 694.157Z" fill="#3AAA35"/>
<path d="M484.058 996.556C481.543 996.556 459.743 996.556 446.048 989.29C411.392 970.844 387.357 1030.93 413.628 1061.96L479.586 1143.56C481.542 1146.08 484.896 1146.08 486.853 1143.56L595.012 1009.41C600.322 1002.7 603.676 994.041 604.515 985.377L607.03 922.494C574.331 954.634 524.303 996.836 485.176 996.836C484.896 996.836 484.617 996.836 484.337 996.836" fill="#3AAA35"/>
<path d="M411.962 686.611L425.657 680.741L411.123 670.68L381.498 666.767L367.804 677.947L383.734 686.052L411.962 686.611Z" fill="#3AAA35"/>
<path d="M566.784 670.68L552.251 680.741L565.946 686.611L593.894 686.052L610.104 677.947L596.13 666.767L566.784 670.68Z" fill="#3AAA35"/>
<path d="M382.345 768.778L417.56 739.153C422.87 734.682 427.342 728.813 430.137 722.384L436.845 707.013C402.748 714.279 367.253 711.764 334.275 700.026L320.859 695.275L339.864 739.433C343.777 749.774 351.882 757.879 362.223 761.512L382.345 768.499V768.778Z" fill="#3AAA35"/>
<path d="M636.12 639.099C644.784 645.806 654.007 651.955 664.068 657.544C676.365 664.252 689.78 669.842 703.755 674.034C715.493 677.388 727.79 680.183 740.926 681.021L726.393 618.976C708.785 616.181 655.404 608.076 596.713 602.207C607.613 613.945 620.189 626.522 636.12 638.819" fill="#3AAA35"/>
<path d="M226.399 681.021C239.256 680.183 251.553 677.667 263.291 674.034C277.545 669.842 291.239 664.252 303.537 657.265C312.759 651.955 321.423 646.086 329.808 639.937C346.577 627.36 359.712 614.225 370.892 601.927C312.759 607.797 259.658 615.622 240.933 618.696L226.399 680.741V681.021Z" fill="#3AAA35"/>
<path d="M614.595 876.379C625.216 862.685 633.321 848.431 634.998 831.103L653.723 695.834C643.382 701.703 577.145 716.515 542.21 709.249L534.105 707.572L526 733.005C522.087 744.184 514.82 744.464 514.82 744.464L508.113 695.834C506.995 688.567 509.79 681.021 515.379 676.27L558.14 639.937C566.245 633.23 576.306 630.155 586.647 631.832C574.63 619.815 565.407 608.635 558.14 599.412C532.148 597.456 506.156 596.059 483.518 596.059C460.88 596.059 435.447 597.456 409.735 599.412C402.189 609.194 392.128 620.933 379.551 633.509L393.804 631.553C403.027 630.155 412.53 632.671 420.076 638.26L472.618 677.388C481.003 683.816 483.518 691.362 483.518 701.423V797.006L505.038 787.783L520.13 798.683C527.956 796.447 529.074 791.137 529.074 791.137L548.638 816.57L520.41 810.98L483.518 821.321L438.522 804.832C429.019 802.596 419.237 804.273 411.412 809.862L390.171 821.88C368.092 834.457 357.192 851.505 363.9 876.1C365.297 881.13 365.577 883.925 369.769 890.353C369.769 890.353 440.199 971.124 485.754 971.124C531.31 971.124 615.154 876.938 615.154 876.938M442.155 884.205C435.168 878.056 404.984 835.575 404.984 835.575H466.749L483.798 842.282L500.846 835.575H562.612C562.612 835.575 560.096 852.623 528.794 858.213L520.689 859.331C496.374 862.685 471.501 861.846 447.186 857.095C447.186 857.095 458.924 878.336 474.016 878.336H529.074C521.248 896.502 503.362 897.899 483.518 897.899C461.998 897.899 456.967 897.899 441.875 884.205" fill="#3AAA35"/>
<path d="M411.977 445.977C436.572 445.138 453.061 444.859 459.489 444.859L450.825 359.058L483.245 269.623L515.665 359.058L507.001 444.859C513.429 444.859 529.639 445.138 554.513 445.977L570.723 354.586L483.525 131L396.326 354.586L412.536 445.977H411.977Z" fill="#3AAA35"/>
<path d="M662.37 262.077L569.582 286.951L590.264 327.476L662.37 262.077Z" fill="#3AAA35"/>
<path d="M579.101 473.645C532.428 471.409 506.156 471.409 504.2 471.409L494.418 568.39C592.237 569.228 733.934 580.407 734.214 580.407L747.908 485.942C739.803 485.104 734.214 484.545 726.668 483.707L763 366.604V209.814L603.975 359.616L579.101 473.645ZM646.456 420.544C654.002 383.372 679.994 356.542 707.104 339.494L671.61 479.514C661.548 478.676 643.941 477.558 634.718 476.999L646.456 420.823V420.544Z" fill="#3AAA35"/>
<path d="M217.998 486.222L231.692 580.407C231.692 580.407 373.669 569.507 471.488 568.669L461.706 471.689C459.75 471.689 433.478 471.689 386.805 473.925L361.651 359.896L202.626 210.093V366.883L238.959 483.986C231.133 484.545 225.823 485.383 217.718 486.222M319.45 420.823L331.188 476.999C321.965 477.558 304.078 478.955 294.296 479.514L258.802 339.494C286.191 356.542 312.183 383.372 319.45 420.543" fill="#3AAA35"/>
<path d="M396.59 286.951L303.802 262.077L375.908 327.755L396.59 286.951Z" fill="#3AAA35"/>
</g>
<defs>
<clipPath id="clip0_147_3723">
<rect width="966.32" height="1289.04" fill="white"/>
</clipPath>
</defs>
</svg>
